<svg xmlns="http://www.w3.org/2000/svg" viewBox="0 0 185 27" height="27px" width="185px">
  <g>
    <g style="isolation: isolate">
      <path d="M5,3.2V9.1H3.5V3.2h-2V1.8H7V3.2Z" fill="#fff"/>
      <path d="M8.1,1.8H9.6V4.7h2.8V1.8H14V9.1H12.5v-3H9.6v3H8.1Z" fill="#fff"/>
      <path d="M15.2,5.4a7.72,7.72,0,0,1,.2-1.5A2.28,2.28,0,0,1,16,2.7a3.13,3.13,0,0,1,1.1-.8,3.34,3.34,0,0,1,1.5-.3,3.34,3.34,0,0,1,1.5.3,4.44,4.44,0,0,1,1.1.8,2.28,2.28,0,0,1,.6,1.2A7.72,7.72,0,0,1,22,5.4a7.72,7.72,0,0,1-.2,1.5,2.28,2.28,0,0,1-.6,1.2,3.13,3.13,0,0,1-1.1.8,3.34,3.34,0,0,1-1.5.3,3.34,3.34,0,0,1-1.5-.3A4.44,4.44,0,0,1,16,8.1a2.28,2.28,0,0,1-.6-1.2A6.05,6.05,0,0,1,15.2,5.4Zm3.4,2.5a1.88,1.88,0,0,0,.8-.2,2.65,2.65,0,0,0,.6-.5,1.91,1.91,0,0,0,.3-.8c0-.3.1-.6.1-1a3.08,3.08,0,0,0-.1-1,4.88,4.88,0,0,0-.3-.7,1,1,0,0,0-.6-.5,1.7,1.7,0,0,0-1.6,0,2.65,2.65,0,0,0-.6.5,1.91,1.91,0,0,0-.3.8c0,.3-.1.6-.1,1a3.08,3.08,0,0,0,.1,1c.1.3.1.5.3.7a1,1,0,0,0,.6.5A1.88,1.88,0,0,0,18.6,7.9Z" fill="#fff"/>
      <path d="M23.1,1.8h1.5l2.2,4.8L29,1.8h1.5V9.1H29V4.9L27.5,8.2H26L24.5,4.9V9.1H23V1.8Z" fill="#fff"/>
    </g>
    <g style="isolation: isolate">
      <path d="M37.4,6.9a2.06,2.06,0,0,1-.7,1.7,3.28,3.28,0,0,1-2.1.6,6.15,6.15,0,0,1-1.3-.1A5,5,0,0,1,32,8.7l.3-1.3c.4.1.7.3,1.1.4a4.1,4.1,0,0,0,1.1.1,2,2,0,0,0,.9-.2.6.6,0,0,0,.3-.6.6.6,0,0,0-.1-.4c0-.1-.1-.2-.2-.3s-.3-.1-.4-.2a6.37,6.37,0,0,0-.7-.2c-.4-.1-.7-.2-1-.3s-.5-.3-.8-.4-.2-.3-.3-.5a2.92,2.92,0,0,1-.2-.9,3.59,3.59,0,0,1,.2-1.1,1.34,1.34,0,0,1,.6-.7,2,2,0,0,1,.8-.4,3.75,3.75,0,0,1,1.1-.1,5.28,5.28,0,0,1,1.3.1,3.58,3.58,0,0,1,1.1.4l-.3,1.3a2.93,2.93,0,0,0-1-.3A4.1,4.1,0,0,0,34.7,3a2,2,0,0,0-.9.2.6.6,0,0,0-.3.6c0,.1,0,.3.1.3a.22.22,0,0,0,.2.2c.1.1.3.1.4.2s.4.1.7.2.7.2,1,.3a4.35,4.35,0,0,1,.7.4,1.13,1.13,0,0,1,.6.6A2.92,2.92,0,0,1,37.4,6.9Z" fill="#fff"/>
    </g>
    <g style="isolation: isolate">
      <path d="M38.3,5.4a7.72,7.72,0,0,1,.2-1.5,2.28,2.28,0,0,1,.6-1.2,3.13,3.13,0,0,1,1.1-.8,3.9,3.9,0,0,1,3,0,4.44,4.44,0,0,1,1.1.8,2.28,2.28,0,0,1,.6,1.2A7.57,7.57,0,0,1,45,5.4a7.72,7.72,0,0,1-.2,1.5,2.28,2.28,0,0,1-.6,1.2,3.13,3.13,0,0,1-1.1.8,3.9,3.9,0,0,1-3,0A4.44,4.44,0,0,1,39,8.1a2.28,2.28,0,0,1-.6-1.2C38.4,6.5,38.3,6,38.3,5.4Zm3.4,2.5a1.88,1.88,0,0,0,.8-.2,2.65,2.65,0,0,0,.6-.5,1.91,1.91,0,0,0,.3-.8c0-.3.1-.6.1-1a3.08,3.08,0,0,0-.1-1,6.89,6.89,0,0,0-.3-.8,1,1,0,0,0-.6-.5c-.2,0-.5-.1-.8-.1a1.88,1.88,0,0,0-.8.2,2.65,2.65,0,0,0-.6.5,1.91,1.91,0,0,0-.3.8c0,.3-.1.6-.1,1a3.08,3.08,0,0,0,.1,1,6.89,6.89,0,0,0,.3.8,1,1,0,0,0,.6.5A2,2,0,0,0,41.7,7.9Z" fill="#fff"/>
      <path d="M46.2,1.8h1.5l3.1,4.7V1.8h1.5V9.1H50.8L47.7,4.4V9.1H46.2Z" fill="#fff"/>
      <path d="M62.3,4.1a1.84,1.84,0,0,1-.4,1.3,1.89,1.89,0,0,1-1,.8L62.7,9H60.8L59.2,6.4H58.1V9H56.6V1.8H60A3,3,0,0,1,61,2a3.51,3.51,0,0,1,.8.5,1.53,1.53,0,0,1,.5.7A2.72,2.72,0,0,0,62.3,4.1Zm-1.6,0a1,1,0,0,0-.3-.8,1.14,1.14,0,0,0-.8-.3H58V5.2h1.6a1.14,1.14,0,0,0,.8-.3C60.6,4.8,60.7,4.5,60.7,4.1Z" fill="#fff"/>
      <path d="M63.8,1.8h4.8V3.2H65.3V4.7h3.1V6H65.3V7.7h3.3V9.1H63.8Z" fill="#fff"/>
      <path d="M75.9,6.3a3.59,3.59,0,0,1-.2,1.1,1.46,1.46,0,0,1-.6.9,1.8,1.8,0,0,1-.9.6,2.74,2.74,0,0,1-1.3.2c-.5,0-.9.1-1.2-.1a3.49,3.49,0,0,1-.9-.6,7,7,0,0,1-.6-.9A5,5,0,0,1,70,6.3V1.8h1.5V6.4a1.25,1.25,0,0,0,.4,1.1,1.78,1.78,0,0,0,1,.4,1.16,1.16,0,0,0,1-.4,1.25,1.25,0,0,0,.4-1.1V1.8h1.5V6.3Z" fill="#fff"/>
      <path d="M80.5,3.2V9.1H79V3.2H77V1.8h5.5V3.2Z" fill="#fff"/>
      <path d="M83.6,1.8h4.8V3.2H85.1V4.7h3.1V6H85.1V7.7h3.3V9.1H83.6Z" fill="#fff"/>
      <path d="M95.6,4.1a1.84,1.84,0,0,1-.4,1.3,1.89,1.89,0,0,1-1,.8L96,9.1H94.1L92.5,6.5H91.4V9.1H89.9V1.8h3.4a3,3,0,0,1,1,.2,3.51,3.51,0,0,1,.8.5,1.53,1.53,0,0,1,.5.7A2.72,2.72,0,0,0,95.6,4.1ZM94,4.1a1,1,0,0,0-.3-.8,1.14,1.14,0,0,0-.8-.3H91.3V5.2H93a1.14,1.14,0,0,0,.8-.3A1.29,1.29,0,0,0,94,4.1Z" fill="#fff"/>
      <path d="M102.1,6.9a2.06,2.06,0,0,1-.7,1.7,3.28,3.28,0,0,1-2.1.6A6.15,6.15,0,0,1,98,9.1a3.37,3.37,0,0,1-1.2-.4l.3-1.3c.4.1.7.3,1.1.4a4.1,4.1,0,0,0,1.1.1,2,2,0,0,0,.9-.2.6.6,0,0,0,.3-.6.6.6,0,0,0-.1-.4c0-.1-.1-.2-.2-.3s-.3-.1-.4-.2a6.37,6.37,0,0,0-.7-.2c-.4-.1-.7-.2-1-.3s-.5-.3-.8-.4-.2-.3-.3-.5a2,2,0,0,1-.2-.9A3.59,3.59,0,0,1,97,2.8a1.34,1.34,0,0,1,.6-.7,2,2,0,0,1,.8-.4,3.75,3.75,0,0,1,1.1-.1,5.28,5.28,0,0,1,1.3.1,3.58,3.58,0,0,1,1.1.4l-.3,1.3a2.93,2.93,0,0,0-1-.3A4.1,4.1,0,0,0,99.5,3a2,2,0,0,0-.9.2.6.6,0,0,0-.3.6c0,.1,0,.3.1.3a.22.22,0,0,0,.2.2c.1.1.3.1.4.2s.4.1.7.2.7.2,1,.3a4.35,4.35,0,0,1,.7.4,2.09,2.09,0,0,1,.4.6A1.1,1.1,0,0,1,102.1,6.9Z" fill="#fff"/>
    </g>
    <g style="isolation: isolate">
      <path d="M13.9,22.3,16.5,12h1.7L14.7,24.8H13.1l-3-11.2-3,11.2H5.5L2,12H3.7L6.3,22.3,9.2,12H11Z" fill="#fff"/>
      <path d="M19.8,12h8.3v1.5H21.5v4.1h6.2V19H21.5v4.4h6.6v1.5H19.8Z" fill="#fff"/>
    </g>
    <g style="isolation: isolate">
      <path d="M39.1,21.4a3.16,3.16,0,0,1-1.2,2.7,5.72,5.72,0,0,1-3.4,1,9.08,9.08,0,0,1-2.3-.3,14.16,14.16,0,0,1-2.2-.7l.4-1.4a6.64,6.64,0,0,0,2,.6,7.61,7.61,0,0,0,2.1.3,4.77,4.77,0,0,0,2.2-.5,1.82,1.82,0,0,0,.8-1.6,1.94,1.94,0,0,0-.8-1.6,8.61,8.61,0,0,0-2.5-1A7.34,7.34,0,0,1,31,17.5a2.9,2.9,0,0,1-1.1-2.4,3.16,3.16,0,0,1,1.2-2.7,5.72,5.72,0,0,1,3.4-.8,13.79,13.79,0,0,1,2.2.2,10.56,10.56,0,0,1,1.9.6L38.4,14a18.88,18.88,0,0,0-1.8-.6,6.48,6.48,0,0,0-2-.2,4.32,4.32,0,0,0-2.2.4,1.7,1.7,0,0,0-.8,1.6,2,2,0,0,0,.2.9,1.7,1.7,0,0,0,.6.6,9.29,9.29,0,0,0,1,.5c.4.1.9.3,1.4.4a10.93,10.93,0,0,0,1.7.5,3.09,3.09,0,0,1,1.4.7,2.44,2.44,0,0,1,.9,1.1A3.34,3.34,0,0,1,39.1,21.4Z" fill="#fff"/>
    </g>
    <g style="isolation: isolate">
      <path d="M45.8,13.5V24.9H44.1V13.5H40.2V12h9.5v1.5Z" fill="#fff"/>
    </g>
    <g style="isolation: isolate">
      <path d="M51.6,12h1.7V23.4h6.2v1.5H51.6Z" fill="#fff"/>
    </g>
    <g style="isolation: isolate">
      <path d="M65.4,12h1.9l4.8,12.8H70.4l-1.2-3.4H63.6l-1.2,3.4H60.7ZM64,20.1h4.6l-2.3-6.7Z" fill="#fff"/>
    </g>
    <g style="isolation: isolate">
      <path d="M83.8,22.3,86.4,12h1.7L84.6,24.8H83L80,13.6,77,24.8H75.4L71.9,12h1.7l2.6,10.3L79,12h1.9Z" fill="#fff"/>
      <path d="M94,12h5.2a4.31,4.31,0,0,1,1.7.3,5.67,5.67,0,0,1,1.3.8,5,5,0,0,1,.8,1.2,3.9,3.9,0,0,1,0,3,2.55,2.55,0,0,1-.8,1.2,2.87,2.87,0,0,1-1.3.8,4.67,4.67,0,0,1-1.7.3H95.7v5.1H94Zm5,6.4a2.49,2.49,0,0,0,1.9-.7,2.27,2.27,0,0,0,.7-1.8,2.27,2.27,0,0,0-.7-1.8,2.94,2.94,0,0,0-1.9-.7H95.7v5Z" fill="#fff"/>
      <path d="M114.8,15.8a3.57,3.57,0,0,1-.8,2.3,3.84,3.84,0,0,1-2.2,1.4l3.6,5.4h-2L110,19.7h-3v5.2h-1.7V12h5.4a4.84,4.84,0,0,1,1.8.3,5.67,5.67,0,0,1,1.3.8,3.6,3.6,0,0,1,.8,1.2A3.89,3.89,0,0,1,114.8,15.8Zm-1.7,0a2.14,2.14,0,0,0-.7-1.8,2.88,2.88,0,0,0-1.9-.6H107v4.9h3.5a2.35,2.35,0,0,0,1.9-.7A2.67,2.67,0,0,0,113.1,15.8Z" fill="#fff"/>
    </g>
    <g style="isolation: isolate">
      <path d="M117.7,12H126v1.5h-6.6v4.1h6.2V19h-6.2v4.4H126v1.5h-8.3Z" fill="#fff"/>
    </g>
    <g style="isolation: isolate">
      <path d="M129.4,18.4a5.17,5.17,0,0,0,1.3,3.8,5,5,0,0,0,3.7,1.4,7.77,7.77,0,0,0,1.6-.2,5,5,0,0,0,1.3-.4l.3,1.4a13.08,13.08,0,0,1-1.5.5,12.31,12.31,0,0,1-2,.2,7.63,7.63,0,0,1-2.7-.5,5.78,5.78,0,0,1-2-1.3,5.71,5.71,0,0,1-1.3-2.1,7.66,7.66,0,0,1-.4-2.7,7.66,7.66,0,0,1,.4-2.7,5.71,5.71,0,0,1,1.3-2.1,5.33,5.33,0,0,1,2-1.3,7.63,7.63,0,0,1,2.7-.5,12.31,12.31,0,0,1,2,.2,5.27,5.27,0,0,1,1.5.5l-.3,1.4a6.47,6.47,0,0,0-1.3-.4,7.77,7.77,0,0,0-1.6-.2,5,5,0,0,0-3.7,1.4A4.41,4.41,0,0,0,129.4,18.4Z" fill="#fff"/>
      <path d="M139.9,12h1.7V24.8h-1.7Z" fill="#fff"/>
      <path d="M153.3,21.4a3.16,3.16,0,0,1-1.2,2.7,5.72,5.72,0,0,1-3.4,1,9.08,9.08,0,0,1-2.3-.3,14.16,14.16,0,0,1-2.2-.7l.4-1.4a6.64,6.64,0,0,0,2,.6,7.61,7.61,0,0,0,2.1.3,4.77,4.77,0,0,0,2.2-.5,1.82,1.82,0,0,0,.8-1.6,1.94,1.94,0,0,0-.8-1.6,8.61,8.61,0,0,0-2.5-1,7.34,7.34,0,0,1-3.2-1.4,2.9,2.9,0,0,1-1.1-2.4,3.16,3.16,0,0,1,1.2-2.7,5.72,5.72,0,0,1,3.4-.8,13.79,13.79,0,0,1,2.2.2,10.56,10.56,0,0,1,1.9.6l-.3,1.4a18.88,18.88,0,0,0-1.8-.6,6.48,6.48,0,0,0-2-.2,4.32,4.32,0,0,0-2.2.4,1.7,1.7,0,0,0-.8,1.6,2,2,0,0,0,.2.9,1.7,1.7,0,0,0,.6.6,9.29,9.29,0,0,0,1,.5c.4.1.9.3,1.4.4a10.93,10.93,0,0,0,1.7.5,3.09,3.09,0,0,1,1.4.7,2.44,2.44,0,0,1,.9,1.1A3.53,3.53,0,0,1,153.3,21.4Z" fill="#fff"/>
      <path d="M155.6,12h1.7V24.8h-1.7Z" fill="#fff"/>
      <path d="M159.7,18.4a6.9,6.9,0,0,1,.4-2.5,5.29,5.29,0,0,1,1.1-2.1,4.89,4.89,0,0,1,1.8-1.4,5.26,5.26,0,0,1,2.6-.5,6.69,6.69,0,0,1,2.6.5,6.23,6.23,0,0,1,1.8,1.4,7,7,0,0,1,1.1,2.1,10.86,10.86,0,0,1,.4,2.5,6.9,6.9,0,0,1-.4,2.5A5.29,5.29,0,0,1,170,23a4.89,4.89,0,0,1-1.8,1.4,5.26,5.26,0,0,1-2.6.5,6.69,6.69,0,0,1-2.6-.5,6.23,6.23,0,0,1-1.8-1.4,7,7,0,0,1-1.1-2.1A6.57,6.57,0,0,1,159.7,18.4Zm5.9,5.3a4.06,4.06,0,0,0,1.9-.4,3.48,3.48,0,0,0,1.3-1.1,6.71,6.71,0,0,0,.8-1.7,7.14,7.14,0,0,0,.2-2.1,13.61,13.61,0,0,0-.2-2.1,5.31,5.31,0,0,0-.8-1.7,3.48,3.48,0,0,0-1.3-1.1,3.58,3.58,0,0,0-1.9-.4,4.06,4.06,0,0,0-1.9.4,4.49,4.49,0,0,0-1.3,1.1,6.71,6.71,0,0,0-.8,1.7,7.14,7.14,0,0,0-.2,2.1,13.61,13.61,0,0,0,.2,2.1,5.31,5.31,0,0,0,.8,1.7,3.48,3.48,0,0,0,1.3,1.1A3.81,3.81,0,0,0,165.6,23.7Z" fill="#fff"/>
      <path d="M173.8,12h1.7l7,10.2V12h1.6V24.8h-1.7l-7-10.2V24.8h-1.6Z" fill="#fff"/>
    </g>
  </g>
</svg>
